<svg version="1.1" id="Layer_1" x="0px" y="0px" viewBox="0 0 243.6 168.5"><g><g><path fill="#FFFFFF" d="M73.8,147.3c0.2-0.4,0.6-0.7,1-0.9c0.7-0.3,1.6-0.2,2.1,0.3s0.8,1.1,0.7,1.9c0.1,0,0.3-0.1,0.4-0.1
				c0.8-0.2,1.7,0,2.2,0.7c0.4,0.5,0.5,1.3,0.3,1.9c-0.1,0.3-0.3,0.6-0.6,0.8l0,0c0.8,0,1.5,0.6,1.7,1.4c0.2,0.7,0,1.5-0.5,2
				c-0.4,0.4-1,0.6-1.6,0.6H68.1c-0.9,0-1.6-0.4-2-1.2c-0.3-0.7-0.2-1.6,0.4-2.1c0.3-0.4,0.8-0.5,1.3-0.6c-0.6-0.5-0.8-1.2-0.7-1.9
				c0.1-0.6,0.6-1.2,1.2-1.4c0.5-0.2,1.2-0.2,1.7,0.1l0,0c-0.1-0.8,0.2-1.6,0.9-2c0.6-0.4,1.6-0.4,2.2,0
				C73.4,146.8,73.6,147.1,73.8,147.3"></path><path fill="#6A5AA1" d="M76.9,147.6c-0.1-0.2-0.2-0.4-0.4-0.6c-0.4-0.4-1.2-0.5-1.7-0.2c-0.5,0.2-0.8,0.7-0.8,1.3h0.6l0,0l0,0l0,0
				c0,0,0.1,0,0.1,0.1l0,0l0,0c-0.1,0-0.1,0.1-0.2,0.1c-0.2,0.2-0.5,0.3-0.5,0.6l0.7,4.3l1.9-4.3l0,0l0,0
				C77,148.8,77.2,148.1,76.9,147.6"></path><path fill="#E00F40" d="M72.6,146.9c-0.6-0.2-1.2-0.1-1.6,0.3c-0.4,0.4-0.6,1-0.4,1.5c0,0.1,2,4.5,2,4.5l0.2,0.3c0.1-0.7,0.8-5,0.8-5
				c0.1-0.3,0-0.6-0.2-1C73.1,147.2,72.9,147,72.6,146.9"></path><path fill="#0B7FC2" d="M79.8,149.6c-0.2-0.4-0.6-0.7-1.1-0.8c-0.7-0.1-1.3,0.2-1.6,0.8l-2.2,5l0,0c0.6-0.4,4.1-2.8,4.1-2.8
				c0.1-0.1,0.1-0.1,0.2-0.1c0.2-0.1,0.4-0.3,0.5-0.5C80,150.7,80.1,150.1,79.8,149.6"></path><path fill-rule="evenodd" clip-rule="evenodd" fill="#EA6519" d="M68.5,148.9c-0.4,0.2-0.8,0.6-0.9,1c-0.2,0.6,0,1.1,0.5,1.5l4.5,3.1l-2.2-5C70,148.9,69.2,148.7,68.5,148.9"></path><path fill="#009540" d="M81,153.2c-0.2-0.3-0.5-0.6-0.8-0.8c-0.4-0.2-1-0.2-1.4,0.1l-4,2.8c0.8,0,4.8,0,4.8,0c0.5,0,0.9-0.2,1.2-0.6
				C81.2,154.4,81.2,153.7,81,153.2"></path><path fill="#F9B406" d="M67.3,152.5c-0.3,0.1-0.6,0.4-0.8,0.8c-0.2,0.4-0.1,1.1,0.2,1.5c0.3,0.4,0.7,0.6,1.2,0.6h4.7
				c-0.8-0.6-3.9-2.7-3.9-2.7C68.3,152.3,67.7,152.3,67.3,152.5"></path></g><g><g><g><path fill="#FFFFFF" d="M18.4,146.8c-2.4,0-4.3,1.9-4.3,4.3s1.9,4.3,4.3,4.3s4.3-1.9,4.3-4.3S20.8,146.8,18.4,146.8z M18.4,154.6
						c-1.9,0-3.5-1.6-3.5-3.5s1.6-3.5,3.5-3.5s3.5,1.6,3.5,3.5S20.3,154.6,18.4,154.6z"></path><path fill="#FFFFFF" d="M55.7,151.1c-0.2-0.1-1.6-0.9-1.8-0.9c-0.7-0.4-1-0.7-1-1.3c0-0.8,0.7-1.3,1.7-1.3c0.6,0,1.2,0.3,1.5,0.4
						c0.1,0,0.1,0.1,0.2,0.1c0.2,0,0.4-0.2,0.4-0.4s-0.1-0.3-0.2-0.4c-0.4-0.2-1.1-0.6-1.9-0.6c-1.5,0-2.5,0.9-2.5,2.1
						c0,1.1,0.8,1.7,1.5,2c0.2,0.1,1.6,0.8,1.8,0.9c0.6,0.3,0.9,0.7,0.9,1.2c0,0.7-0.6,1.4-1.7,1.4c-1,0-1.8-0.7-2.1-0.9l-0.1-0.1
						l-0.6,0.6l0.1,0.1c0.3,0.3,1.3,1.2,2.7,1.2c1.6,0,2.5-1.1,2.5-2.3C57,152.3,56.5,151.6,55.7,151.1z"></path><path fill="#FFFFFF" d="M9.5,147.6c0.9,0,1.8,0.4,2.5,1c0.2,0.1,0.4,0.1,0.6,0c0.1-0.1,0.1-0.2,0.1-0.3s0-0.2-0.1-0.3l-0.1-0.1
						c-0.8-0.8-1.9-1.2-3-1.2c-2.4,0-4.3,1.9-4.3,4.3s1.9,4.3,4.3,4.3c1.3,0,2.4-0.5,3.2-1.4l-0.6-0.6c-0.6,0.7-1.6,1.1-2.6,1.1
						c-1.9,0-3.5-1.6-3.5-3.5C6,149.2,7.6,147.6,9.5,147.6z"></path><path fill="#FFFFFF" d="M38.8,147.6c0.9,0,1.8,0.4,2.5,1c0.2,0.1,0.5,0.1,0.6,0s0.1-0.2,0.1-0.3s0-0.2-0.1-0.3v-0.1
						c-0.8-0.8-1.9-1.2-3-1.2c-2.4,0-4.3,1.9-4.3,4.3s1.9,4.3,4.3,4.3c1.3,0,2.4-0.5,3.2-1.4l-0.6-0.6c-0.6,0.7-1.6,1.1-2.6,1.1
						c-1.9,0-3.5-1.6-3.5-3.5C35.4,149.2,36.9,147.6,38.8,147.6z"></path><path fill="#FFFFFF" d="M31.5,146.8c-0.2,0-0.3,0.1-0.4,0.2c-0.1,0.1-2.5,6.3-2.5,6.3s-2.5-6.1-2.5-6.3c-0.1-0.1-0.2-0.2-0.4-0.2
						c-0.2,0-0.3,0.1-0.4,0.3s-1.5,7.9-1.5,7.9v0.1c0,0.2,0.2,0.4,0.4,0.4c0.2,0,0.3-0.1,0.4-0.3l1.2-6.6c0,0,2.3,5.8,2.4,5.9
						s0.2,0.2,0.4,0.2s0.3-0.1,0.4-0.2c0.1-0.1,2.4-5.9,2.4-5.9l1.3,6.9h0.8c0,0-1.5-8.1-1.5-8.3C31.8,146.9,31.7,146.8,31.5,146.8z"></path><path fill="#FFFFFF" d="M46.9,146.8c-0.2,0-0.3,0.1-0.4,0.2c-0.1,0.1-3.2,7.9-3.2,7.9c0,0.1,0,0.1,0,0.1c0,0.2,0.2,0.4,0.4,0.4
						s0.3-0.1,0.4-0.2l1.2-3h3.3l1.3,3.2h0.8c0,0-3.3-8.2-3.4-8.4C47.2,146.9,47.1,146.8,46.9,146.8z M45.6,151.3l1.3-3.2l1.3,3.2
						H45.6z"></path><path fill="#FFFFFF" d="M63.7,147.2c0-0.2-0.2-0.4-0.4-0.4h-4.8c-0.2,0-0.4,0.2-0.4,0.4s0.2,0.4,0.4,0.4h2v7.7h0.8v-7.7h2
						C63.5,147.7,63.7,147.5,63.7,147.2z"></path></g></g></g><g><path fill="#FFFFFF" d="M229.4,153.3c0.1,0.1,0.7,0.9,1.9,0.9c0.8,0,1.3-0.5,1.3-1.1c0-0.5-0.3-0.8-1-1.1c-0.2-0.1-0.9-0.5-1.1-0.5
				c-1-0.5-1.8-1.1-1.8-2.3c0-1.3,1.1-2.3,2.7-2.3c1,0,1.5,0.2,1.9,0.4c0.2,0.1,0.5,0.3,0.5,0.7s-0.3,0.6-0.6,0.6
				c-0.2,0-0.5-0.1-0.6-0.2c-0.2-0.1-0.6-0.3-1.1-0.3c-0.9,0-1.3,0.5-1.3,0.9s0.2,0.8,0.8,1c0,0,1,0.5,1.4,0.7
				c1.4,0.7,1.7,1.4,1.7,2.3c0,1.4-1.2,2.4-2.9,2.4c-1.8,0-2.6-1.1-2.8-1.3L229.4,153.3z"></path><path fill="#FFFFFF" d="M169.1,153.2c0.1,0.1,0.7,0.9,1.9,0.9c0.8,0,1.3-0.5,1.3-1.1c0-0.5-0.3-0.8-0.9-1.1c-0.2-0.1-0.9-0.4-1.1-0.5
				c-1-0.5-1.8-1.1-1.8-2.3c0-1.3,1.1-2.3,2.6-2.3c0.9,0,1.5,0.2,1.9,0.4c0.2,0.1,0.5,0.3,0.5,0.7s-0.3,0.6-0.6,0.6
				c-0.2,0-0.5-0.1-0.6-0.2c-0.2-0.1-0.6-0.3-1.1-0.3c-0.9,0-1.2,0.5-1.2,0.9s0.2,0.7,0.8,1c0,0,1,0.5,1.4,0.6
				c1.3,0.6,1.7,1.4,1.7,2.3c0,1.4-1.2,2.4-2.9,2.4c-1.8,0-2.6-1-2.7-1.3L169.1,153.2z"></path><path fill="#FFFFFF" d="M186.3,147.4v6.5h3.2v1.3h-4c-0.4,0-0.6-0.3-0.6-0.6v-7.2c0-0.4,0.3-0.7,0.7-0.7
				C186.1,146.8,186.3,147.1,186.3,147.4"></path><path fill="#FFFFFF" d="M219.9,155.3v-7.8c0-0.4,0.3-0.7,0.7-0.7h0.1c0.3,0,0.6,0.2,0.8,0.4l4.3,5.7v-5.5c0-0.4,0.3-0.7,0.7-0.7
				s0.7,0.3,0.7,0.7v7.2c0,0.4-0.3,0.7-0.7,0.7h-0.1c-0.4,0-0.6-0.2-0.8-0.4l-4.2-5.5v5.8L219.9,155.3L219.9,155.3z"></path><path fill="#FFFFFF" d="M174.8,151.1L174.8,151.1c0-2.4,1.8-4.4,4.4-4.4c2.6,0,4.4,1.9,4.4,4.3l0,0c0,2.4-1.8,4.3-4.4,4.3
				C176.6,155.4,174.8,153.5,174.8,151.1z M182,151.1L182,151.1c0-1.7-1.2-3-2.9-3s-2.8,1.3-2.8,2.9l0,0c0,1.6,1.2,3,2.9,3
				C180.8,154.1,182,152.8,182,151.1z"></path><path fill="#FFFFFF" d="M209.8,151.1L209.8,151.1c0-2.4,1.8-4.4,4.4-4.4c2.6,0,4.4,1.9,4.4,4.3l0,0c0,2.4-1.8,4.3-4.4,4.3
				C211.6,155.4,209.8,153.5,209.8,151.1z M217,151.1L217,151.1c0-1.7-1.2-3-2.9-3s-2.8,1.3-2.8,2.9l0,0c0,1.6,1.2,3,2.9,3
				C215.9,154.1,217,152.8,217,151.1z"></path><path fill="#FFFFFF" d="M190.5,151.8v-4.2c0-0.4,0.3-0.7,0.7-0.7s0.7,0.3,0.7,0.7v4.2c0,1.5,0.8,2.4,2.1,2.4s2.1-0.8,2.1-2.3v-4.2
				c0-0.4,0.3-0.7,0.7-0.7s0.7,0.3,0.7,0.7v4.2c0,2.5-1.4,3.7-3.6,3.7C191.9,155.4,190.5,154.2,190.5,151.8z"></path><path fill="#FFFFFF" d="M201.3,155.3v-7h-2c-0.4,0-0.7-0.3-0.7-0.7s0.3-0.7,0.7-0.7h5.5c0.4,0,0.7,0.3,0.7,0.7s-0.3,0.7-0.7,0.7h-2v7
				H201.3z"></path><path fill="#FFFFFF" d="M208.2,146.9v8.4h-1.5v-8.4H208.2z"></path></g><g><path fill="#FFFFFF" d="M106.3,147.4v7.9h1.4v-3.6h4.1v3.1c0,0.4,0.3,0.6,0.7,0.6c0.4,0,0.7-0.3,0.7-0.6v-7.4c0-0.4-0.3-0.7-0.7-0.7
				c-0.4,0-0.7,0.3-0.7,0.7v2.9h-4.1v-2.9c0-0.4-0.3-0.7-0.7-0.7C106.5,146.8,106.3,147.1,106.3,147.4"></path><path fill="#FFFFFF" d="M92.1,148.3v1.9h3.1c0.5,0,0.8,0.3,0.8,0.7s-0.3,0.7-0.8,0.7h-3.1v2.5h4.2v1.3h-4.9c-0.4,0-0.7-0.3-0.7-0.6
				v-7.1c0-0.4,0.3-0.6,0.7-0.6h4.2c0.4,0,0.7,0.3,0.7,0.7s-0.3,0.7-0.7,0.7L92.1,148.3L92.1,148.3z"></path><path fill="#FFFFFF" d="M135.2,147.4v6.5h3.2v1.3h-4c-0.4,0-0.6-0.3-0.6-0.6v-7.2c0-0.4,0.3-0.7,0.7-0.7
				C134.9,146.8,135.2,147.1,135.2,147.4"></path><path fill="#FFFFFF" d="M104.9,154.1c-0.7,0.7-1.6,1.2-2.9,1.3c-2.4,0.2-4.4-1.6-4.5-4l0,0c-0.2-2.4,1.5-4.4,4-4.6
				c1.3-0.1,2.2,0.2,2.9,0.8c0.2,0.1,0.3,0.3,0.3,0.6c0,0.4-0.3,0.7-0.7,0.8c-0.2,0-0.3-0.1-0.4-0.1c-0.6-0.4-1.2-0.7-2-0.6
				c-1.6,0.1-2.7,1.5-2.6,3.1l0,0c0.1,1.6,1.3,2.9,2.9,2.8c0.9-0.1,1.5-0.4,2-0.9L104.9,154.1z"></path><path fill="#FFFFFF" d="M114.9,155.3v-7.8c0-0.4,0.3-0.7,0.7-0.7h0.1c0.3,0,0.6,0.2,0.8,0.4l4.3,5.7v-5.5c0-0.4,0.3-0.7,0.7-0.7
				c0.4,0,0.7,0.3,0.7,0.7v7.2c0,0.4-0.3,0.7-0.7,0.7h-0.2c-0.3,0-0.6-0.2-0.8-0.4l-4.2-5.5v5.8L114.9,155.3L114.9,155.3z"></path><path fill="#FFFFFF" d="M123.5,151.1L123.5,151.1c0-2.4,1.8-4.4,4.4-4.4s4.4,1.9,4.4,4.3l0,0c0,2.4-1.8,4.3-4.4,4.3
				S123.5,153.5,123.5,151.1z M130.7,151.1L130.7,151.1c0-1.7-1.2-3-2.8-3c-1.7,0-2.8,1.3-2.8,3l0,0c0,1.6,1.2,3,2.8,3
				C129.6,154.1,130.7,152.8,130.7,151.1z"></path><path fill="#FFFFFF" d="M139.1,151.1L139.1,151.1c0-2.4,1.8-4.4,4.4-4.4c2.6,0,4.4,1.9,4.4,4.3l0,0c0,2.4-1.8,4.3-4.4,4.3
				C140.9,155.4,139.1,153.5,139.1,151.1z M146.3,151.1L146.3,151.1c0-1.7-1.2-3-2.8-3s-2.8,1.3-2.8,2.9l0,0c0,1.6,1.2,3,2.8,3
				S146.3,152.8,146.3,151.1z"></path><path fill="#FFFFFF" d="M153.6,150.6h2.3c0.4,0,0.7,0.3,0.7,0.7v2.2c0,0.4-0.2,0.7-0.5,0.9c-0.7,0.5-1.7,0.9-3,0.9
				c-2.6,0-4.3-1.9-4.3-4.3l0,0c0-2.3,1.8-4.3,4.3-4.3c1.2,0,2.1,0.3,2.9,0.9c0.1,0.1,0.3,0.3,0.3,0.6c0,0.4-0.3,0.7-0.7,0.7
				c-0.2,0-0.3-0.1-0.4-0.2c-0.5-0.4-1.1-0.7-2-0.7c-1.5,0-2.7,1.4-2.7,2.9l0,0c0,1.7,1.1,3,2.8,3c0.8,0,1.5-0.2,2-0.6v-1.6h-1.6
				L153.6,150.6L153.6,150.6z"></path><path fill="#FFFFFF" d="M161.7,151.7v3.6h-1.5v-3.6l-2.6-3.6c-0.1-0.1-0.2-0.3-0.2-0.5c0-0.4,0.3-0.7,0.7-0.7c0.3,0,0.5,0.2,0.7,0.4
				l2,3l2-3c0.2-0.3,0.4-0.4,0.7-0.4c0.4,0,0.7,0.3,0.7,0.7c0,0.2-0.1,0.4-0.2,0.5L161.7,151.7z"></path><path fill="#FFFFFF" d="M85.4,155.3v-7h-2c-0.4,0-0.7-0.3-0.7-0.7s0.3-0.7,0.7-0.7h5.5c0.4,0,0.7,0.3,0.7,0.7s-0.3,0.7-0.7,0.7h-2v7
				H85.4z"></path></g></g><g style="opacity: 0.1;"><path d="M101.3,88.1c-3.1,2.8-7,4.1-11,4.1c-9.4,0-17-7.4-17-16.8c0-9.4,7.6-16.9,17-16.9c4.8,0,8.3,1.6,11.4,4.4
			c0.2,0.2,0.3,0.6,0,0.8l-0.7,0.8c-0.3,0.3-0.5,0.2-0.8,0c-2.7-2.4-6-3.8-9.9-3.8c-8.2,0-14.6,6.7-14.6,14.8
			c0,8.1,6.4,14.7,14.6,14.7c3.9,0,6.9-1.5,9.6-3.7c0.2-0.1,0.4-0.2,0.7-0.2c0.6,0,1.1,0.5,1.1,1.1C101.7,87.6,101.5,87.9,101.3,88.1
			z"></path><path d="M151.1,78c4.6,0,8.5-3.8,8.5-8.5c0-4.6-3.9-8.2-8.5-8.2h-8.3V78H151.1z M140.5,59.6c0-0.3,0.3-0.6,0.6-0.6h10.1
			c5.8,0,10.6,4.7,10.6,10.5c0,5.9-4.8,10.6-10.5,10.6h-8.5v10.7c0,0.6-0.5,1.1-1.1,1.1c-0.6,0-1.1-0.5-1.1-1.1V59.6z"></path><path d="M121.1,91.6c-0.2,0.4-0.5,0.6-1,0.6c-0.4,0-0.8-0.3-1-0.6l-13.5-31.3c0-0.1-0.1-0.2-0.1-0.3c0-0.6,0.5-1,1-1
			c0.4,0,0.8,0.3,1,0.6l12.5,28.8c0,0,0,0,0.1,0l12.6-28.8c0.2-0.4,0.5-0.6,1-0.6c0.6,0,1,0.5,1,1c0,0.1,0,0.3-0.1,0.4L121.1,91.6z"></path></g><g><path fill="#FFFFFF" d="M100.8,87.7c-3.1,2.8-7,4.1-11,4.1c-9.4,0-17-7.4-17-16.8c0-9.4,7.6-16.9,17-16.9c4.8,0,8.3,1.6,11.4,4.4
			c0.2,0.2,0.3,0.6,0,0.8l-0.7,0.8c-0.3,0.3-0.5,0.2-0.8,0c-2.7-2.4-6-3.8-9.9-3.8c-8.2,0-14.6,6.7-14.6,14.8
			c0,8.1,6.4,14.7,14.6,14.7c3.9,0,6.9-1.5,9.6-3.7c0.2-0.2,0.4-0.2,0.7-0.2c0.6,0,1.1,0.5,1.1,1.1C101.2,87.2,101.1,87.5,100.8,87.7
			z"></path><path fill="#FFFFFF" d="M150.6,77.5c4.6,0,8.5-3.8,8.5-8.5c0-4.6-3.9-8.2-8.5-8.2h-8.3v16.8H150.6z M140,59.2c0-0.3,0.3-0.6,0.6-0.6
			h10.1c5.8,0,10.6,4.7,10.6,10.5c0,5.9-4.8,10.6-10.5,10.6h-8.5v10.7c0,0.6-0.5,1.1-1.1,1.1c-0.6,0-1.1-0.5-1.1-1.1V59.2z"></path><path fill="#FFFFFF" d="M120.6,91.2c-0.2,0.4-0.5,0.6-1,0.6c-0.4,0-0.8-0.3-1-0.6L105.2,60c0-0.1-0.1-0.2-0.1-0.3c0-0.6,0.5-1,1-1
			c0.4,0,0.8,0.3,1,0.6L119.7,88c0,0,0,0,0.1,0l12.6-28.8c0.2-0.4,0.5-0.6,1-0.6c0.6,0,1,0.5,1,1c0,0.1,0,0.3-0.1,0.4L120.6,91.2z"></path></g><g style="opacity: 0.1;"><linearGradient id="SVGID_1_" gradientUnits="userSpaceOnUse" x1="28.7672" y1="44.96" x2="250.018" y2="21.0187"><stop offset="0" style="stop-color: rgb(0, 0, 0);"></stop><stop offset="0.6692" style="stop-color: rgb(0, 0, 0); stop-opacity: 0;"></stop></linearGradient><path d="M117.2,8.7c-39.1,0-72.5,25-85.6,60.2l0,0c-0.5,1.3-1.7,2.2-3.1,2.2c-0.7,0-1.3-0.2-1.8-0.6
			c0.6,0.9,1.6,1.4,2.7,1.4c1.4,0,2.6-0.9,3.1-2.2l0,0C45.6,34.6,78.9,9.6,118,9.6c24.8,0,47.2,10,63.7,26.4
			C165.2,19.1,142.4,8.7,117.2,8.7z" style="fill: url(&quot;#SVGID_1_&quot;);"></path><linearGradient id="SVGID_2_" gradientUnits="userSpaceOnUse" x1="189.1555" y1="51.2919" x2="216.4047" y2="48.3433"><stop offset="0" style="stop-color: rgb(0, 0, 0);"></stop><stop offset="0.6692" style="stop-color: rgb(0, 0, 0); stop-opacity: 0;"></stop></linearGradient><path d="M186.4,31.2c9.8,10,17.6,22.1,22.6,35.6l-5.6,2.2c0.1,0.4,0.3,0.7,0.4,1.1l6.1-2.4
			C204.7,53.8,196.6,41.4,186.4,31.2z" style="fill: url(&quot;#SVGID_2_&quot;);"></path></g><g style="opacity: 0.1;"><linearGradient id="SVGID_3_" gradientUnits="userSpaceOnUse" x1="168.505" y1="44.0846" x2="-8.9755" y2="77.3991"><stop offset="3.926918e-04" style="stop-color: rgb(0, 0, 0);"></stop><stop offset="0.6692" style="stop-color: rgb(0, 0, 0); stop-opacity: 0;"></stop></linearGradient><path d="M117.1,31.2c-31.7,0-59.4,22.5-65.8,53.5c-0.7,3.4-4,5.6-7.4,4.9c-1-0.2-2-0.7-2.7-1.3
			c0.9,1.1,2.1,1.9,3.6,2.2c3.4,0.7,6.7-1.5,7.4-4.9c6.4-31,34.1-53.5,65.8-53.5c18.1,0,34.8,7.3,47.1,19.4
			C152.7,38.9,135.6,31.2,117.1,31.2z" style="fill: url(&quot;#SVGID_3_&quot;);"></path><linearGradient id="SVGID_4_" gradientUnits="userSpaceOnUse" x1="193.1372" y1="64.5493" x2="173.558" y2="68.2244"><stop offset="3.926918e-04" style="stop-color: rgb(0, 0, 0);"></stop><stop offset="0.6692" style="stop-color: rgb(0, 0, 0); stop-opacity: 0;"></stop></linearGradient><path d="M196.1,83c-3.2-15.3-10.9-29.5-22-40.5c10.7,10.9,18.1,24.7,21.2,39.6c0.7,3.4-1.5,6.7-4.9,7.4
			c-0.4,0.1-0.9,0.1-1.3,0.1c-1.5,0-2.9-0.5-4-1.4c1.2,1.4,2.9,2.3,4.9,2.3c0.4,0,0.9,0,1.3-0.1C194.6,89.8,196.8,86.4,196.1,83z" style="fill: url(&quot;#SVGID_4_&quot;);"></path></g><linearGradient id="SVGID_5_" gradientUnits="userSpaceOnUse" x1="28.8568" y1="49.5433" x2="285.0403" y2="21.822"><stop offset="0" style="stop-color: rgb(255, 255, 255);"></stop><stop offset="0.6692" style="stop-color: rgb(255, 255, 255); stop-opacity: 0;"></stop></linearGradient><path d="M117.2,2C75.3,2,39.5,28.9,25.4,66.6l0,0c-0.2,0.4-0.2,0.8-0.2,1.3c0,1.8,1.5,3.3,3.3,3.3
		c1.4,0,2.6-0.9,3.1-2.2l0,0C44.7,33.8,78.1,8.7,117.2,8.7c39.2,0,72.6,25.1,85.7,60.5l6.1-2.4C195,29,159.2,2,117.2,2z" style="fill: url(&quot;#SVGID_5_&quot;);"></path><linearGradient id="SVGID_6_" gradientUnits="userSpaceOnUse" x1="194.155" y1="45.8436" x2="-18.4217" y2="85.7459"><stop offset="0" style="stop-color: rgb(255, 255, 255);"></stop><stop offset="0.6692" style="stop-color: rgb(255, 255, 255); stop-opacity: 0;"></stop></linearGradient><path d="M189,89.8c-2.9,0-5.5-2-6.2-5c-6.4-31-34.1-53.5-65.8-53.5S57.7,53.7,51.3,84.7c-0.7,3.4-4,5.6-7.4,4.9
		c-3.4-0.7-5.6-4-4.9-7.4c3.7-17.7,13.4-33.8,27.4-45.4c14.2-11.7,32.2-18.2,50.7-18.2s36.5,6.5,50.7,18.2
		c14,11.6,23.8,27.7,27.4,45.4c0.7,3.4-1.5,6.7-4.9,7.4C189.9,89.7,189.5,89.8,189,89.8z" style="fill: url(&quot;#SVGID_6_&quot;);"></path><path d="M63.7,100.4c9.3,0,16.8,7.5,16.8,16.8c0,9.3-7.5,16.7-16.8,16.7s-16.7-7.4-16.7-16.7
		C46.9,107.9,54.3,100.4,63.7,100.4z M63.7,126.4c5.1,0,9.3-4.2,9.3-9.3c0-5.1-4.2-9.4-9.3-9.4c-5.1,0-9.3,4.2-9.3,9.4
		C54.4,122.2,58.6,126.4,63.7,126.4z" style="opacity: 0.1;"></path><path d="M116,129l2.2-3.9c0.4-0.6,1.3-0.5,1.6-0.3c0.2,0.1,3.5,2.6,6.6,2.6c1.9,0,3.2-1.2,3.2-2.8c0-2-1.6-3.4-4.8-4.7
		c-4-1.6-9-4.7-9-10.3c0-4.6,3.6-9.3,10.8-9.3c4.8,0,8.6,2.5,10,3.5c0.6,0.3,0.5,1.2,0.3,1.5l-2.4,3.6c-0.3,0.5-1.2,0.9-1.6,0.6
		c-0.4-0.2-3.8-2.8-6.7-2.8c-1.7,0-2.9,1.1-2.9,2.4c0,1.7,1.4,3,5.1,4.5c3.6,1.4,9.4,4.3,9.4,10.6c0,4.8-4.1,9.6-11,9.6
		c-6.1,0-9.4-2.5-10.5-3.6C115.8,129.8,115.6,129.6,116,129z" style="opacity: 0.1;"></path><path d="M157.7,100.4c9.3,0,16.8,7.5,16.8,16.8c0,9.3-7.5,16.7-16.8,16.7c-9.3,0-16.7-7.4-16.7-16.7
		C141,107.9,148.4,100.4,157.7,100.4z M157.7,126.4c5.1,0,9.3-4.2,9.3-9.3c0-5.1-4.2-9.4-9.3-9.4c-5.1,0-9.3,4.2-9.3,9.4
		C148.4,122.2,152.6,126.4,157.7,126.4z" style="opacity: 0.1;"></path><path d="M42.4,103c1,0.6,1.7,1.7,1.7,2.9c0,1.9-1.5,3.4-3.4,3.4c-0.7,0-1.4-0.2-1.9-0.6c-1.4-0.8-3.1-1.3-4.8-1.3
		c-5.2,0-8.9,4.3-8.9,9.4c0,5.1,3.8,9.3,9,9.3c2.1,0,4.5-0.8,6.1-2.2c0.3-0.3,0.9-0.3,1.2,0l3.6,3.8c0.3,0.3,0.3,0.9,0,1.2
		c-3.1,3-7,4.4-11.1,4.4c-9.1,0-16.5-7.3-16.5-16.4s7.3-16.5,16.5-16.5C37.1,100.6,39.9,101.4,42.4,103z" style="opacity: 0.1;"></path><path d="M180.5,133c-1.4,0-2.5-1.1-2.5-2.5l0-25.9c0-2,1.6-3.6,3.6-3.6s3.6,1.6,3.6,3.6l0,21.7l8.7,0
		c1.9,0,3.5,1.5,3.5,3.4c0,1.9-1.6,3.4-3.5,3.4L180.5,133z" style="opacity: 0.1;"></path><path d="M201.4,101.9c0-0.5,0.4-0.9,0.9-0.9H219c1.9,0,3.4,1.5,3.4,3.4c0,1.9-1.5,3.4-3.4,3.4h-10.5v5.7l8,0
		c1.9,0,3.4,1.5,3.4,3.4s-1.5,3.4-3.4,3.4l-8,0v6.2h12.6c0.5,0,0.9,0.4,0.9,0.9v5c0,0.5-0.4,0.9-0.9,0.9h-17.2
		c-1.4,0-2.5-1.1-2.5-2.5L201.4,101.9z" style="opacity: 0.1;"></path><path d="M91.3,115.2L91.3,115.2l0,14.8c0,2-1.6,3.7-3.7,3.7S84,132,84,129.9l0-28c0-0.9,0.7-1.6,1.6-1.6
		c0.4,0,0.8,0.2,1.1,0.5l18,17.4h0l0-13.8c0-2,1.6-3.7,3.7-3.7c2,0,3.7,1.6,3.7,3.7l0,28c0,0.8-0.6,1.4-1.4,1.4
		c-0.4,0-0.8-0.2-1.1-0.5L91.3,115.2z" style="opacity: 0.1;"></path><path fill="#FFFFFF" d="M62.7,99.4c9.3,0,16.8,7.5,16.8,16.8c0,9.3-7.5,16.7-16.8,16.7s-16.7-7.4-16.7-16.7
		C45.9,106.9,53.3,99.4,62.7,99.4z M62.7,125.4c5.1,0,9.3-4.2,9.3-9.3c0-5.1-4.2-9.4-9.3-9.4c-5.1,0-9.3,4.2-9.3,9.4
		C53.4,121.2,57.6,125.4,62.7,125.4z"></path><path fill="#FFFFFF" d="M115,128l2.2-3.9c0.4-0.6,1.3-0.5,1.6-0.3c0.2,0.1,3.5,2.6,6.6,2.6c1.9,0,3.2-1.2,3.2-2.8c0-2-1.6-3.4-4.8-4.7
		c-4-1.6-9-4.7-9-10.3c0-4.6,3.6-9.3,10.8-9.3c4.8,0,8.6,2.5,10,3.5c0.6,0.3,0.5,1.2,0.3,1.5l-2.4,3.6c-0.3,0.5-1.2,0.9-1.6,0.6
		c-0.4-0.2-3.8-2.8-6.7-2.8c-1.7,0-2.9,1.1-2.9,2.4c0,1.7,1.4,3,5.1,4.5c3.6,1.4,9.4,4.3,9.4,10.6c0,4.8-4.1,9.6-11,9.6
		c-6.1,0-9.4-2.5-10.5-3.6C114.8,128.8,114.6,128.6,115,128z"></path><path fill="#FFFFFF" d="M156.7,99.4c9.3,0,16.8,7.5,16.8,16.8c0,9.3-7.5,16.7-16.8,16.7c-9.3,0-16.7-7.4-16.7-16.7
		C140,106.9,147.4,99.4,156.7,99.4z M156.7,125.4c5.1,0,9.3-4.2,9.3-9.3c0-5.1-4.2-9.4-9.3-9.4c-5.1,0-9.3,4.2-9.3,9.4
		C147.4,121.2,151.6,125.4,156.7,125.4z"></path><path fill="#FFFFFF" d="M41.4,102c1,0.6,1.7,1.7,1.7,2.9c0,1.9-1.5,3.4-3.4,3.4c-0.7,0-1.4-0.2-1.9-0.6c-1.4-0.8-3.1-1.3-4.8-1.3
		c-5.2,0-8.9,4.3-8.9,9.4c0,5.1,3.8,9.3,9,9.3c2.1,0,4.5-0.8,6.1-2.2c0.3-0.3,0.9-0.3,1.2,0l3.6,3.8c0.3,0.3,0.3,0.9,0,1.2
		c-3.1,3-7,4.4-11.1,4.4c-9.1,0-16.5-7.3-16.5-16.4s7.3-16.5,16.5-16.5C36.1,99.6,38.9,100.4,41.4,102z"></path><path fill="#FFFFFF" d="M179.5,132c-1.4,0-2.5-1.1-2.5-2.5l0-25.9c0-2,1.6-3.6,3.6-3.6s3.6,1.6,3.6,3.6l0,21.7l8.7,0
		c1.9,0,3.5,1.5,3.5,3.4c0,1.9-1.6,3.4-3.5,3.4L179.5,132z"></path><path fill="#FFFFFF" d="M200.4,100.9c0-0.5,0.4-0.9,0.9-0.9H218c1.9,0,3.4,1.5,3.4,3.4c0,1.9-1.5,3.4-3.4,3.4h-10.5v5.7l8,0
		c1.9,0,3.4,1.5,3.4,3.4s-1.5,3.4-3.4,3.4l-8,0v6.2h12.6c0.5,0,0.9,0.4,0.9,0.9v5c0,0.5-0.4,0.9-0.9,0.9h-17.2
		c-1.4,0-2.5-1.1-2.5-2.5L200.4,100.9z"></path><path fill="#FFFFFF" d="M90.3,114.2L90.3,114.2l0,14.8c0,2-1.6,3.7-3.7,3.7S83,131,83,128.9l0-28c0-0.9,0.7-1.6,1.6-1.6
		c0.4,0,0.8,0.2,1.1,0.5l18,17.4h0l0-13.8c0-2,1.6-3.7,3.7-3.7c2,0,3.7,1.6,3.7,3.7l0,28c0,0.8-0.6,1.4-1.4,1.4
		c-0.4,0-0.8-0.2-1.1-0.5L90.3,114.2z"></path></svg>